<?xml version="1.0" encoding="UTF-8" standalone="yes"?>
<!DOCTYPE svg PUBLIC "-//W3C//DTD SVG 1.1//EN" "http://www.w3.org/Graphics/SVG/1.1/DTD/svg11.dtd">

<svg width="300" height="242" viewBox="0 0 300 242" xmlns="http://www.w3.org/2000/svg" xmlns:xlink="http://www.w3.org/1999/xlink" version="1.1" baseProfile="full">
    <g transform="scale(2.727273,-2.727273) translate(0,-89)">
        <path d="M 13.887710 19.888883 Q 13.039136 19.888883 12.084491 19.719223 Q 11.129846 19.549562 10.493416 19.549562 Q 9.644842 19.549562 8.902340 19.775776 Q 8.159839 20.001990 7.311265 20.454419 Q 4.977688 21.811704 4.659473 24.243506 Q 4.341258 26.675308 5.614118 29.276771 Q 6.250548 30.407842 7.841624 31.482360 Q 9.432699 32.556877 11.288953 33.348627 Q 13.145208 34.140376 15.001462 34.536251 Q 16.857717 34.932126 18.130577 34.819019 Q 19.085222 34.819019 19.615580 33.801055 Q 19.827724 33.122412 19.509509 32.726538 Q 19.191294 32.330663 18.767007 32.330663 Q 17.812362 32.217556 16.380394 31.708574 Q 14.948426 31.199592 13.569495 30.464396 Q 12.190563 29.729200 10.970738 28.824343 Q 9.750914 27.919486 9.114484 27.014630 Q 8.584125 26.222880 8.690197 25.204916 Q 8.796269 24.186953 9.326627 23.847631 L 13.039136 23.847631 Q 14.630211 23.847631 16.698609 22.942775 Q 18.767007 22.037918 19.509509 20.567526 Q 20.145939 19.097134 19.509509 17.117760 Q 18.873079 15.138386 17.441111 12.932798 Q 16.009143 10.727209 14.099853 8.578175 Q 12.190563 6.429140 10.122165 4.789087 Q 8.053767 3.149035 6.197512 2.074517 Q 4.341258 1.000000 3.174470 1.000000 Q 2.113753 1.000000 1.477323 1.282768 Q 0.840892 1.565535 1.053036 2.017964 Q 3.492685 3.827677 5.242867 5.015302 Q 6.993050 6.202926 9.114484 8.351961 Q 9.856986 9.256817 11.395025 11.179638 Q 12.933064 13.102458 14.046817 15.025279 Q 15.160570 16.948099 15.425749 18.418491 Q 15.690928 19.888883 13.887710 19.888883 Z M 32.980613 24.639381 Q 33.935258 25.318023 35.102046 25.318023 Q 36.374907 25.091809 37.859910 24.978702 Q 39.344914 24.865595 40.511702 24.413167 Q 41.572419 23.960738 42.739208 23.282096 Q 43.799924 22.377239 44.065104 21.585490 Q 44.330283 20.793740 44.012068 19.210241 Q 43.799924 18.192277 43.269566 17.117760 Q 42.739208 16.043242 41.996706 15.138386 Q 41.466347 14.233529 40.776881 13.328672 Q 40.087415 12.423816 39.344914 11.518959 Q 38.390268 10.500995 36.799193 9.709246 Q 36.268835 9.143710 35.579369 8.917496 Q 34.889903 8.691282 34.253473 8.351961 Q 32.450254 7.333997 29.798462 8.012639 Q 27.146670 8.691282 25.343451 10.614102 Q 25.025236 11.179638 24.866129 11.745173 Q 24.707021 12.310709 24.494878 12.876244 Q 24.282735 14.346636 24.282735 15.421153 Q 24.282735 16.495671 24.707021 18.079170 Q 24.919165 19.323348 25.343451 20.510972 Q 25.767738 21.698597 26.298097 22.716560 Q 26.828455 23.960738 27.358813 25.035256 Q 27.889172 26.109773 28.207387 27.353951 Q 28.419530 27.693272 28.684709 28.145701 Q 28.949889 28.598129 29.374175 28.824343 L 29.374175 29.050557 Q 29.374175 29.163664 29.427211 29.220218 Q 29.480247 29.276771 29.480247 29.389879 Q 29.692390 30.747164 30.487928 31.878234 Q 31.283466 33.009305 32.025967 34.140376 Q 34.359545 37.420482 36.958301 40.417819 Q 39.557057 43.415157 42.314921 46.469049 Q 42.633136 46.808370 43.110458 47.034584 Q 43.587781 47.260798 44.012068 47.487012 Q 44.860641 48.165655 45.921358 47.487012 Q 46.027430 47.260798 46.292609 47.034584 Q 46.557788 46.808370 46.769932 46.582156 Q 46.982075 46.469049 47.035111 46.129727 Q 47.088147 45.790406 47.088147 45.677299 Q 47.088147 44.772442 46.769932 44.659335 Q 46.239573 44.206907 45.974394 43.867586 Q 45.709215 43.528264 45.178856 43.075836 Q 43.481709 41.831658 42.102777 40.135052 Q 40.723846 38.438445 39.344914 36.854946 Q 37.859910 34.932126 36.480978 33.122412 Q 35.102046 31.312699 33.935258 29.389879 Q 33.086684 27.806379 32.344183 26.335987 Q 31.601681 24.865595 30.753107 23.282096 Q 30.222749 21.811704 29.639355 20.115098 Q 29.055960 18.418491 28.843817 16.834992 Q 27.995243 15.251493 28.525602 13.102458 Q 28.525602 12.536923 29.002924 12.084494 Q 29.480247 11.632066 30.010605 11.858280 Q 30.434892 11.858280 30.647036 11.914834 Q 30.859179 11.971387 31.283466 12.197601 Q 36.374907 13.894208 39.344914 18.644705 Q 39.557057 19.097134 39.663129 19.323348 Q 39.769200 19.549562 39.769200 19.888883 Q 40.193487 21.019954 39.557057 21.359275 Q 38.708484 21.698597 37.912946 22.320686 Q 37.117408 22.942775 35.950620 22.942775 Q 35.314190 22.942775 34.783831 23.225542 Q 34.253473 23.508310 33.617043 23.734524 Q 33.404899 23.734524 33.298828 23.847631 L 33.086684 24.073846 Q 32.980613 24.413167 32.980613 24.639381 Z M 55.255666 24.639381 Q 56.210311 25.318023 57.377100 25.318023 Q 58.649960 25.091809 60.134964 24.978702 Q 61.619967 24.865595 62.786756 24.413167 Q 63.847473 23.960738 65.014261 23.282096 Q 66.074978 22.377239 66.340157 21.585490 Q 66.605336 20.793740 66.287121 19.210241 Q 66.074978 18.192277 65.544620 17.117760 Q 65.014261 16.043242 64.271759 15.138386 Q 63.741401 14.233529 63.051935 13.328672 Q 62.362469 12.423816 61.619967 11.518959 Q 60.665322 10.500995 59.074247 9.709246 Q 58.543888 9.143710 57.854422 8.917496 Q 57.164957 8.691282 56.528526 8.351961 Q 54.725308 7.333997 52.073516 8.012639 Q 49.421724 8.691282 47.618505 10.614102 Q 47.300290 11.179638 47.141182 11.745173 Q 46.982075 12.310709 46.769932 12.876244 Q 46.557788 14.346636 46.557788 15.421153 Q 46.557788 16.495671 46.982075 18.079170 Q 47.194218 19.323348 47.618505 20.510972 Q 48.042792 21.698597 48.573150 22.716560 Q 49.103509 23.960738 49.633867 25.035256 Q 50.164225 26.109773 50.482440 27.353951 Q 50.694584 27.693272 50.959763 28.145701 Q 51.224942 28.598129 51.649229 28.824343 L 51.649229 29.050557 Q 51.649229 29.163664 51.702265 29.220218 Q 51.755301 29.276771 51.755301 29.389879 Q 51.967444 30.747164 52.762982 31.878234 Q 53.558519 33.009305 54.301021 34.140376 Q 56.634598 37.420482 59.233354 40.417819 Q 61.832111 43.415157 64.589974 46.469049 Q 64.908189 46.808370 65.385512 47.034584 Q 65.862835 47.260798 66.287121 47.487012 Q 67.135695 48.165655 68.196412 47.487012 Q 68.302483 47.260798 68.567662 47.034584 Q 68.832842 46.808370 69.044985 46.582156 Q 69.257128 46.469049 69.310164 46.129727 Q 69.363200 45.790406 69.363200 45.677299 Q 69.363200 44.772442 69.044985 44.659335 Q 68.514627 44.206907 68.249447 43.867586 Q 67.984268 43.528264 67.453910 43.075836 Q 65.756763 41.831658 64.377831 40.135052 Q 62.998899 38.438445 61.619967 36.854946 Q 60.134964 34.932126 58.756032 33.122412 Q 57.377100 31.312699 56.210311 29.389879 Q 55.361738 27.806379 54.619236 26.335987 Q 53.876734 24.865595 53.028161 23.282096 Q 52.497802 21.811704 51.914408 20.115098 Q 51.331014 18.418491 51.118871 16.834992 Q 50.270297 15.251493 50.800655 13.102458 Q 50.800655 12.536923 51.277978 12.084494 Q 51.755301 11.632066 52.285659 11.858280 Q 52.709946 11.858280 52.922089 11.914834 Q 53.134233 11.971387 53.558519 12.197601 Q 58.649960 13.894208 61.619967 18.644705 Q 61.832111 19.097134 61.938182 19.323348 Q 62.044254 19.549562 62.044254 19.888883 Q 62.468541 21.019954 61.832111 21.359275 Q 60.983537 21.698597 60.187999 22.320686 Q 59.392462 22.942775 58.225673 22.942775 Q 57.589243 22.942775 57.058885 23.225542 Q 56.528526 23.508310 55.892096 23.734524 Q 55.679953 23.734524 55.573881 23.847631 L 55.361738 24.073846 Q 55.255666 24.413167 55.255666 24.639381 Z" transform="scale(1.000000,1.000000) translate(19.818400,20.086833)" fill="#0f182b" opacity="1.000000"></path>
        <path d="M 30.419945 23.119397 C 25.557394 24.911197 25.163043 22.239584 18.649713 26.208232 C 25.163043 22.239584 25.766828 24.048504 30.109049 21.402739 C 30.645112 21.076109 31.612522 20.854196 32.400884 21.544846 L 31.973519 21.927759 L 31.196732 22.523578 L 30.419945 23.119397 M 29.018323 24.234587 C 25.227468 25.797562 25.077749 23.770322 20.284162 27.320229 C 25.077749 23.770322 25.419305 24.816301 28.615029 22.449696 C 29.210644 22.008612 30.321814 21.640640 31.233405 22.251446 L 31.217791 22.369006 L 30.441702 22.949933 L 29.730012 23.592260 L 29.018323 24.234587 M 19.485286 34.608108 C 16.025124 38.496733 14.089367 36.263930 10.190412 42.860135 C 14.089367 36.263930 15.839545 37.572549 18.438849 33.175079 C 18.797674 32.568022 19.637252 31.835393 20.708849 32.061559 L 20.708215 32.209048 L 20.243122 32.979552 L 19.864204 33.793830 L 19.485286 34.608108 M 17.256818 39.276841 C 14.670185 42.595729 11.612411 40.181478 9.100817 45.774303 C 11.612411 40.181478 14.244781 41.476810 15.919177 37.748260 C 16.265935 36.976099 17.172152 35.991236 18.257768 36.014817 L 18.056857 36.720482 L 17.790178 37.572602 L 17.523498 38.424721 L 17.256818 39.276841 M 15.359922 48.346853 C 14.043757 53.422205 5.925621 49.843431 5.448506 57.549157 C 5.925621 49.843431 13.499700 52.806328 13.817776 47.669178 C 13.853686 47.089210 14.197534 46.237214 15.213578 46.009029 L 15.278100 46.534084 L 15.319011 47.440469 L 15.359922 48.346853 M 15.644509 51.778230 C 14.838306 54.939119 9.790017 53.400405 10.077846 58.049041 C 9.790017 53.400405 13.969510 54.070323 13.777624 50.971231 C 13.720280 50.045091 14.049553 48.627209 15.076314 48.102340 L 15.162553 48.199567 L 15.199417 49.094233 L 15.347781 49.988898 L 15.496145 50.883564 L 15.644509 51.778230 M 16.762599 57.532088 C 16.803729 60.986570 12.836671 61.075508 14.328881 65.805981 C 12.836671 61.075508 15.890568 60.439112 14.895761 57.285464 C 14.654304 56.520019 14.702538 55.244189 15.582356 54.548898 L 15.779557 55.060909 L 16.038938 55.905002 L 16.400768 56.718545 L 16.762599 57.532088 M 17.935261 60.697145 C 18.664970 64.763100 17.062492 64.207764 19.525413 69.692203 C 17.062492 64.207764 17.765713 64.359819 16.123767 60.703526 C 15.820082 60.027280 15.711394 58.857748 16.512127 58.094602 L 16.689118 58.349752 L 17.039799 59.155517 L 17.487530 59.926331 L 17.935261 60.697145 M 19.051700 62.944828 C 19.863358 66.283215 11.943416 65.686744 14.452191 69.931057 C 11.943416 65.686744 18.904800 65.978871 17.232283 63.149329 C 16.848379 62.499845 16.695691 61.282680 17.402012 60.429710 L 17.626944 60.701817 L 18.071329 61.462604 L 18.515715 62.223391 L 19.051700 62.944828 M 20.470419 65.220996 C 21.544147 69.002749 16.965158 70.273103 19.867037 75.182466 C 16.965158 70.273103 20.337907 68.692746 18.403321 65.419838 C 17.955202 64.661716 17.662085 63.300475 18.298884 62.412569 L 18.821723 63.080765 L 19.371288 63.794175 L 19.920854 64.507585 L 20.470419 65.220996 M 22.562645 67.985698 C 24.688163 72.510054 13.138104 73.097745 17.528985 78.987763 C 13.138104 73.097745 23.489915 72.269432 20.562661 68.342753 C 20.016212 67.609736 19.444475 66.315901 20.013597 65.324688 L 20.105538 65.301578 L 20.719815 65.972608 L 21.334092 66.643638 L 21.948369 67.314668 L 22.562645 67.985698 M 24.925253 70.608349 C 26.588883 73.900347 23.408073 75.478748 27.008717 79.402577 C 23.408073 75.478748 25.410097 73.849717 23.009668 71.233831 C 22.445590 70.619123 21.906827 69.415021 22.361586 68.431555 L 22.829712 68.787453 L 23.528226 69.394418 L 24.226739 70.001383 L 24.925253 70.608349 M 26.872436 72.436821 C 29.101295 75.778170 20.544358 78.215567 24.888964 82.110736 C 20.544358 78.215567 28.116094 75.831908 25.219690 73.235128 C 24.700221 72.769396 24.153883 71.811064 24.561693 70.833629 L 25.323242 71.360228 L 26.097839 71.898525 L 26.872436 72.436821 M 29.067376 74.034177 C 31.058030 76.752802 25.610135 79.793367 29.488837 82.665880 C 25.610135 79.793367 29.844352 76.876072 27.258551 74.961063 C 26.530538 74.421907 25.729139 73.223365 25.987026 72.117376 L 26.634567 72.546507 L 27.398936 73.080380 L 28.233156 73.557278 L 29.067376 74.034177 M 30.565451 75.218013 C 32.666496 78.018392 27.882018 81.065594 31.926307 84.060738 C 27.882018 81.065594 31.566548 78.182327 28.870355 76.185564 C 28.238414 75.717557 27.524506 74.699576 27.803683 73.661956 L 28.089473 73.751291 L 28.914799 74.240198 L 29.740125 74.729106 L 30.565451 75.218013 M 32.915152 76.732515 C 35.895786 79.719658 31.708542 83.468493 36.959989 86.668260 C 31.708542 83.468493 35.025003 79.931056 31.524039 77.797878 C 30.982949 77.468185 30.336160 76.703101 30.585945 75.684290 L 31.142804 75.899928 L 32.028978 76.316222 L 32.915152 76.732515 M 36.366799 78.402626 C 39.767301 81.201685 36.549979 84.894249 42.316170 87.748520 C 36.549979 84.894249 38.647780 81.525984 34.803652 79.623137 C 34.030428 79.240390 33.027198 78.342782 33.102436 77.222107 L 33.552669 77.370635 L 34.490713 77.714632 L 35.428756 78.058629 L 36.366799 78.402626 M 38.661519 79.369631 C 42.717940 82.036107 34.951358 88.685272 41.584053 91.288696 C 34.951358 88.685272 41.584134 82.473991 37.162338 80.738376 C 36.325761 80.410008 35.256723 79.450286 35.219379 78.320080 L 36.138221 78.650018 L 37.069467 78.986095 L 37.865493 79.177863 L 38.661519 79.369631 M 42.366382 80.798193 C 46.232443 82.994621 43.107211 88.057442 49.334968 89.914639 C 43.107211 88.057442 45.408355 83.396235 41.256517 82.158104 C 40.607415 81.964533 39.731574 81.346650 39.702091 80.264610 L 39.951893 80.272026 L 40.731069 80.487228 L 41.548725 80.642711 L 42.366382 80.798193 M 45.486118 81.559586 C 50.314004 83.592846 44.829541 91.642758 52.378973 93.224527 C 44.829541 91.642758 49.301375 84.196030 44.268420 83.141518 C 43.416488 82.963019 42.255049 82.161924 42.043052 81.058802 L 42.206738 81.017099 L 43.018048 81.168526 L 43.829358 81.319953 L 44.640668 81.471379 L 45.486118 81.559586 M 48.769397 82.382628 C 52.430929 84.171511 45.366354 90.565640 51.166256 91.780844 C 45.366354 90.565640 51.713623 84.640304 47.847022 83.830168 C 47.253972 83.705912 46.426526 83.223002 46.335070 82.182126 L 47.072778 82.233511 L 47.921088 82.308069 L 48.769397 82.382628 M 51.242875 82.622045 L 52.088938 82.819505 L 52.935001 83.016964 L 53.806505 83.144124 L 54.112726 83.248027 C 53.623470 84.225332 52.487508 84.461596 51.760790 84.371222 C 46.879629 83.764208 47.481667 91.440209 40.159926 90.529688 C 47.481667 91.440209 46.238306 83.007387 51.242875 82.622045 M 54.614834 82.799583 C 58.163569 83.946431 53.585640 90.833305 58.970403 91.054844 C 53.585640 90.833305 57.201838 84.761392 53.611996 84.613700 C 52.682191 84.575446 51.310415 84.007125 50.889783 82.950550 L 51.119212 82.885625 L 51.980398 82.899264 L 52.841583 82.912904 L 53.728209 82.856244 L 54.614834 82.799583 M 57.257309 83.052547 C 60.483998 84.186144 57.644551 89.774517 62.546244 89.976181 C 57.644551 89.774517 59.815796 84.801537 56.548000 84.667094 C 55.906203 84.640689 54.956709 84.280183 54.676917 83.267826 L 55.482908 83.193839 L 56.370109 83.123193 L 57.257309 83.052547 M 60.678034 82.864122 C 65.181695 83.679675 60.687831 92.370536 67.381661 92.095133 C 60.687831 92.370536 64.483565 84.437717 60.021012 84.621318 C 59.292926 84.651274 58.185820 84.332164 57.780669 83.347987 L 58.040928 83.246115 L 58.919963 83.118784 L 59.798999 82.991453 L 60.678034 82.864122 M 62.307348 82.742004 C 66.373344 83.244077 62.650068 91.439327 68.563955 90.703902 C 62.650068 91.439327 65.755563 83.973115 61.812971 84.463399 C 61.112932 84.550453 60.013230 84.256979 59.537407 83.279123 L 59.717053 83.183779 L 60.588951 83.059954 L 61.460850 82.936129 L 62.307348 82.742004 M 64.884131 82.459477 L 65.754472 82.457086 L 66.595013 82.387915 L 67.401959 82.325783 C 67.216966 83.382757 66.327474 83.870203 65.702101 83.947971 C 60.752991 84.563421 65.296120 92.784986 57.872456 93.708160 C 65.296120 92.784986 60.058426 84.067283 64.884131 82.459477 M 68.115117 81.842291 C 72.733241 81.896386 68.326984 91.786108 74.946559 90.399131 C 68.326984 91.786108 72.223808 82.609564 67.810757 83.534215 C 67.177432 83.666914 66.173602 83.624349 65.647463 82.685528 L 65.682139 82.599988 L 66.493132 82.347422 L 67.304125 82.094856 L 68.115117 81.842291 M 69.657599 81.502892 L 70.475640 81.348700 L 71.293682 81.194508 L 72.111723 81.040316 L 72.393617 81.046010 C 72.349681 82.102630 71.458871 82.727315 70.799447 82.923963 C 67.384152 83.942448 68.150684 87.571245 63.027741 89.098973 C 68.150684 87.571245 66.528080 83.479674 69.657599 81.502892 M 72.823656 80.530312 L 73.643643 80.382645 L 74.425170 80.175258 L 75.206697 79.967871 L 75.717483 79.866750 C 75.657634 80.960706 74.724522 81.716698 74.012899 81.928913 C 69.514927 83.270266 72.043894 89.279992 65.296937 91.292022 C 72.043894 89.279992 68.611461 82.829962 72.823656 80.530312 M 74.986527 79.658513 L 75.774948 79.447321 L 76.563369 79.236130 L 77.351791 79.024939 L 78.275412 78.669438 L 78.517111 78.651489 C 78.472582 79.785251 77.357384 80.700855 76.505897 81.035066 C 72.926382 82.440038 74.074402 86.472017 68.705130 88.579474 C 74.074402 86.472017 71.772380 81.994348 74.986527 79.658513 M 77.207350 78.961154 L 78.141892 78.610082 L 79.076433 78.259010 L 79.490245 78.165699 C 79.665137 79.194935 78.991959 79.862740 78.454491 80.128787 C 75.634509 81.524681 77.810243 85.154011 73.580270 87.247853 C 77.810243 85.154011 74.830994 81.253261 77.207350 78.961154 M 81.446558 76.659826 C 86.232639 74.914620 85.508121 86.777424 91.906747 82.878667 C 85.508121 86.777424 85.930483 75.957701 81.664733 78.556872 C 80.978265 78.975145 79.695647 79.179832 78.815102 78.504174 L 78.991785 78.305027 L 79.829701 77.778568 L 80.667617 77.252110 L 81.446558 76.659826 M 84.600457 74.640773 C 88.840438 72.745077 88.898598 83.786991 94.365848 79.738022 C 88.898598 83.786991 88.630895 73.816965 84.986062 76.516278 C 84.335442 76.998118 83.064728 77.315528 82.123889 76.722545 L 82.351873 76.465606 L 83.122868 75.877803 L 83.893863 75.290001 L 84.600457 74.640773 M 85.414298 74.136357 L 86.245758 73.655733 L 87.077218 73.175108 L 87.661595 72.796407 C 88.014154 73.817517 87.406083 74.640831 86.882431 75.028640 C 82.943216 77.945969 90.769180 82.804282 84.860357 87.180274 C 90.769180 82.804282 82.070230 77.857302 85.414298 74.136357 M 87.495152 72.393978 L 88.259947 71.844747 L 89.024741 71.295517 L 89.789535 70.746286 L 90.156741 70.495672 C 90.549528 71.539661 89.859926 72.602308 89.254770 73.144862 C 85.578645 76.440703 93.886021 80.569114 88.371834 85.512874 C 93.886021 80.569114 84.486573 76.434387 87.495152 72.393978 M 89.543990 70.666382 L 90.247035 70.063576 L 90.950081 69.460769 L 91.580146 68.937494 C 92.092939 69.857718 91.665034 70.814059 91.217023 71.302282 C 88.397837 74.374511 96.123324 76.841162 91.894546 81.449505 C 96.123324 76.841162 87.461603 74.414723 89.543990 70.666382 M 91.339502 68.570170 L 92.039583 67.964643 L 92.658939 67.310916 L 93.278295 66.657189 L 93.760453 66.187511 C 94.242853 67.204895 93.787933 68.512076 93.212347 69.139325 C 90.018378 72.619976 97.566857 76.138827 92.775904 81.359805 C 97.566857 76.138827 88.882331 72.726934 91.339502 68.570170 M 93.020561 66.605434 L 93.629308 65.930298 L 94.238056 65.255162 L 94.760653 64.536276 L 94.829444 64.585134 C 95.459079 65.473975 95.113231 66.482664 94.708919 67.025042 C 92.067349 70.568662 96.432086 73.669030 92.469731 78.984460 C 96.432086 73.669030 91.180741 70.746714 93.020561 66.605434 M 94.952143 63.745428 L 95.497609 63.029596 L 96.043075 62.313763 L 96.436945 61.692182 C 97.168365 62.489260 96.937429 63.455361 96.615876 63.999359 C 94.241096 68.016982 95.835983 69.668259 92.273814 75.694693 C 95.835983 69.668259 93.438221 68.271896 94.952143 63.745428 M 96.478737 60.700782 L 96.924443 59.929058 L 97.370150 59.157335 L 97.718831 58.350661 L 97.872439 58.162335 C 98.675832 58.917012 98.565126 60.056775 98.268714 60.716827 C 96.808634 63.968136 100.541300 65.793356 98.351181 70.670320 C 100.541300 65.793356 95.930895 64.361753 96.478737 60.700782 M 97.417497 58.388493 L 97.769274 57.571774 L 98.121052 56.755054 L 98.472829 55.938335 L 98.598586 55.750852 C 99.486185 56.404626 99.404169 57.514750 99.188124 58.199570 C 98.106186 61.629113 103.429395 62.477315 101.806487 67.621631 C 103.429395 62.477315 97.289226 62.118897 97.417497 58.388493 M 98.288680 55.132244 L 98.553398 54.276885 L 98.818116 53.421527 L 99.082834 52.566168 L 99.222280 51.965116 C 100.179781 52.559538 100.282124 53.838433 100.130792 54.646777 C 99.279259 59.195269 106.865274 58.833097 105.587974 65.655835 C 106.865274 58.833097 98.420070 59.864751 98.288680 55.132244 M 98.816692 45.818657 L 98.744813 44.927196 L 98.672934 44.035736 L 98.601056 43.144276 L 98.633945 42.812440 C 99.685610 42.995609 100.259019 44.028421 100.396502 44.762790 C 101.075111 48.387604 102.076157 48.841527 103.094072 54.278748 C 102.076157 48.841527 100.478225 49.259455 98.816692 45.818657 M 98.113804 42.509916 L 97.936554 41.638113 L 97.759304 40.766310 L 97.582054 39.894507 L 97.404804 39.022704 L 97.415547 38.820556 C 98.560213 38.945013 99.294207 40.188669 99.574736 41.077920 C 100.751938 44.809543 103.052300 45.054865 104.818104 50.652299 C 103.052300 45.054865 100.244677 45.940688 98.113804 42.509916 M 92.998160 31.746242 L 92.530610 30.965875 L 92.063060 30.185508 L 91.514785 29.453315 L 91.452995 29.251274 C 92.502329 28.923419 93.454172 29.583995 93.891911 30.171195 C 95.922330 32.894872 97.733597 32.451490 100.779226 36.537007 C 97.733597 32.451490 95.830319 33.872247 92.998160 31.746242 M 84.607118 23.685257 L 83.898862 23.038294 L 83.126206 22.452731 L 82.353550 21.867167 L 82.200081 21.658881 C 83.131379 21.060083 84.365759 21.370707 84.998465 21.839260 C 87.769511 23.891367 89.392595 23.012210 93.549163 26.090372 C 89.392595 23.012210 87.973294 24.933736 84.607118 23.685257 M 81.466661 21.642181 L 80.698447 21.032292 L 79.871258 20.488229 L 79.092101 19.967941 C 79.938021 19.275143 81.093397 19.467332 81.713880 19.845400 C 84.390835 21.476499 85.368572 21.094339 89.384004 23.540988 C 85.368572 21.094339 84.663946 22.419316 81.466661 21.642181 M 78.936339 20.359007 L 78.092248 19.825208 L 77.248157 19.291409 L 76.539265 18.901901 L 76.093618 18.615723 C 76.924241 17.871419 78.229651 18.044920 78.974840 18.413790 C 83.334233 20.571694 84.258301 19.985471 90.797389 23.222327 C 84.258301 19.985471 83.739358 21.620699 78.936339 20.359007" transform="scale(1.000000,1.000000) translate(-1.232000,-6.336000)" opacity="1.000000"></path>
        <path d="M 86.873832 36.205140 C 86.873832 55.359617 67.772277 70.910280 44.186916 70.910280 C 20.601555 70.910280 1.500000 55.359617 1.500000 36.205140 C 1.500000 17.050663 20.601555 1.500000 44.186916 1.500000 C 67.772277 1.500000 86.873832 17.050663 86.873832 36.205140 Z M 87.373832 36.205140 C 87.373832 16.749236 68.028362 1.000000 44.186916 1.000000 C 20.345470 1.000000 1.000000 16.749236 1.000000 36.205140 C 1.000000 55.661045 20.345470 71.410280 44.186916 71.410280 C 68.028362 71.410280 87.373832 55.661045 87.373832 36.205140 Z" transform="scale(1.000000,1.000000) translate(11.784112,6.626381)" opacity="1.000000"></path>
    </g>
</svg>